<svg width="63" height="72" viewBox="0 0 63 72" fill="none" xmlns="http://www.w3.org/2000/svg">
<path d="M24 11V62M16.5 11H44C45.3261 11 46.5979 11.597 47.5355 12.6597C48.4732 13.7224 49 15.1638 49 16.6667V50.6667C49 52.1696 48.4732 53.6109 47.5355 54.6736C46.5979 55.7363 45.3261 56.3333 44 56.3333H16.5C15.837 56.3333 15.2011 56.0348 14.7322 55.5035C14.2634 54.9721 14 54.2514 14 53.5V13.8333C14 13.0819 14.2634 12.3612 14.7322 11.8299C15.2011 11.2985 15.837 11 16.5 11V11Z" stroke="#B19D4F" stroke-width="2.75" stroke-linecap="round" stroke-linejoin="round"/>
<path d="M34.125 24H39.375" stroke="#B19D4F" stroke-width="2.75" stroke-linecap="round" stroke-linejoin="round"/>
<path d="M34.125 36H39.375" stroke="#B19D4F" stroke-width="2.75" stroke-linecap="round" stroke-linejoin="round"/>
</svg>
