<svg width="66" height="66" viewBox="0 0 66 66" fill="none" xmlns="http://www.w3.org/2000/svg">
<g clip-path="url(#clip0_109_950)">
<path d="M19.25 19.25C22.2876 19.25 24.75 16.7876 24.75 13.75C24.75 10.7124 22.2876 8.25 19.25 8.25C16.2124 8.25 13.75 10.7124 13.75 13.75C13.75 16.7876 16.2124 19.25 19.25 19.25Z" stroke="#B19D4F" stroke-width="2.75" stroke-linecap="round" stroke-linejoin="round"/>
<path d="M13.75 60.5V46.75L11 44V33C11 32.2707 11.2897 31.5712 11.8055 31.0555C12.3212 30.5397 13.0207 30.25 13.75 30.25H24.75C25.4793 30.25 26.1788 30.5397 26.6945 31.0555C27.2103 31.5712 27.5 32.2707 27.5 33V44L24.75 46.75V60.5" stroke="#B19D4F" stroke-width="2.75" stroke-linecap="round" stroke-linejoin="round"/>
<path d="M46.75 19.25C49.7876 19.25 52.25 16.7876 52.25 13.75C52.25 10.7124 49.7876 8.25 46.75 8.25C43.7124 8.25 41.25 10.7124 41.25 13.75C41.25 16.7876 43.7124 19.25 46.75 19.25Z" stroke="#1E470A" stroke-width="2.75" stroke-linecap="round" stroke-linejoin="round"/>
<path d="M41.25 60.5V49.5H35.75L41.25 33C41.25 32.2707 41.5397 31.5712 42.0555 31.0555C42.5712 30.5397 43.2707 30.25 44 30.25H49.5C50.2293 30.25 50.9288 30.5397 51.4445 31.0555C51.9603 31.5712 52.25 32.2707 52.25 33L57.75 49.5H52.25V60.5" stroke="#1E470A" stroke-width="2.75" stroke-linecap="round" stroke-linejoin="round"/>
</g>
<defs>
<clipPath id="clip0_109_950">
<rect width="66" height="66" fill="white"/>
</clipPath>
</defs>
</svg>
