<svg width="68" height="70" viewBox="0 0 68 70" fill="none" xmlns="http://www.w3.org/2000/svg">
<path d="M60 41L51.2727 32.2727H30.9091C30.1376 32.2727 29.3976 31.9662 28.8521 31.4207C28.3065 30.8751 28 30.1352 28 29.3636V11.9091C28 11.1376 28.3065 10.3976 28.8521 9.85205C29.3976 9.30649 30.1376 9 30.9091 9H57.0909C57.8624 9 58.6024 9.30649 59.148 9.85205C59.6935 10.3976 60 11.1376 60 11.9091V41Z" stroke="#B19D4F" stroke-width="2.75" stroke-linecap="round" stroke-linejoin="round"/>
<path d="M40 43.5455V49.3636C40 50.1352 39.7031 50.8751 39.1746 51.4207C38.6461 51.9662 37.9292 52.2727 37.1818 52.2727H17.4545L9 61V31.9091C9 31.1376 9.29691 30.3976 9.82543 29.8521C10.3539 29.3065 11.0708 29 11.8182 29H17.4545" stroke="#B19D4F" stroke-width="2.75" stroke-linecap="round" stroke-linejoin="round"/>
</svg>
