<svg width="20" height="20" viewBox="0 0 20 20" fill="none" xmlns="http://www.w3.org/2000/svg">
<path d="M18.8748 11.9236L15.8956 8.94444H8.94423C8.68085 8.94444 8.42827 8.83982 8.24203 8.65358C8.0558 8.46735 7.95117 8.21476 7.95117 7.95139V1.99306C7.95117 1.72968 8.0558 1.47709 8.24203 1.29086C8.42827 1.10463 8.68085 1 8.94423 1H17.8817C18.1451 1 18.3977 1.10463 18.5839 1.29086C18.7702 1.47709 18.8748 1.72968 18.8748 1.99306V11.9236Z" stroke="#1E470A" stroke-width="2" stroke-linecap="round" stroke-linejoin="round"/>
<path d="M11.9236 12.9167V14.9028C11.9236 15.1662 11.819 15.4188 11.6328 15.605C11.4465 15.7912 11.1939 15.8959 10.9306 15.8959H3.97917L1 18.875V8.94447C1 8.6811 1.10463 8.42851 1.29086 8.24228C1.47709 8.05604 1.72968 7.95142 1.99306 7.95142H3.97917" stroke="#B19D4F" stroke-width="2" stroke-linecap="round" stroke-linejoin="round"/>
</svg>
