<svg width="19" height="19" viewBox="0 0 19 19" fill="none" xmlns="http://www.w3.org/2000/svg">
<path d="M7.41699 2.83333C7.41699 2.3471 7.61015 1.88079 7.95396 1.53697C8.29778 1.19315 8.7641 1 9.25033 1C9.73656 1 10.2029 1.19315 10.5467 1.53697C10.8905 1.88079 11.0837 2.3471 11.0837 2.83333C12.1364 3.33111 13.0338 4.10597 13.6797 5.07486C14.3256 6.04375 14.6957 7.17015 14.7503 8.33333V11.0833C14.8193 11.6532 15.0211 12.199 15.3396 12.6766C15.658 13.1543 16.0841 13.5505 16.5837 13.8333H1.91699C2.41652 13.5505 2.84265 13.1543 3.16108 12.6766C3.47951 12.199 3.68134 11.6532 3.75033 11.0833V8.33333C3.80492 7.17015 4.17502 6.04375 4.82095 5.07486C5.46687 4.10597 6.36428 3.33111 7.41699 2.83333" stroke="#1E470A" stroke-width="2" stroke-linecap="round" stroke-linejoin="round"/>
<path d="M6.5 13.8333V14.75C6.5 15.4793 6.78973 16.1788 7.30546 16.6945C7.82118 17.2102 8.52065 17.5 9.25 17.5C9.97935 17.5 10.6788 17.2102 11.1945 16.6945C11.7103 16.1788 12 15.4793 12 14.75V13.8333" stroke="#1E470A" stroke-width="2" stroke-linecap="round" stroke-linejoin="round"/>
<path d="M17.4996 4.41642C16.8984 3.10857 16.0253 1.94389 14.9385 1" stroke="#B19D4F" stroke-width="2" stroke-linecap="round" stroke-linejoin="round"/>
<path d="M1 4.41642C1.60074 3.10874 2.47322 1.94407 3.55933 1" stroke="#B19D4F" stroke-width="2" stroke-linecap="round" stroke-linejoin="round"/>
</svg>
