<svg width="19" height="18" viewBox="0 0 19 18" fill="none" xmlns="http://www.w3.org/2000/svg">
<path d="M14.5685 13.5602C14.5685 13.5602 14.6391 13.5098 14.7518 13.4236C16.4413 12.1173 17.5 10.2244 17.5 8.117C17.5 4.18817 13.8058 1 9.25183 1C4.696 1 1 4.18817 1 8.117C1 12.0477 4.69417 15.1258 9.25 15.1258C9.63867 15.1258 10.2767 15.1002 11.164 15.0488C12.3208 15.8005 14.0093 16.4174 15.487 16.4174C15.9444 16.4174 16.1598 16.0416 15.8665 15.6584C15.421 15.1121 14.8068 14.2367 14.5685 13.5593V13.5602Z" stroke="#1E470A" stroke-width="2" stroke-linecap="round" stroke-linejoin="round"/>
<path d="M5.125 10.0842C7.41667 12.3758 11.0833 12.3758 13.375 10.0842" stroke="#B19D4F" stroke-width="1.5" stroke-linecap="round" stroke-linejoin="round"/>
</svg>
