<svg width="19" height="19" viewBox="0 0 19 19" fill="none" xmlns="http://www.w3.org/2000/svg">
<path d="M9.25263 1.0026C10.5441 1.00232 11.8175 1.30522 12.9705 1.88692C14.1235 2.46863 15.1239 3.3129 15.891 4.35177C16.6582 5.39065 17.1708 6.59512 17.3875 7.86824C17.6042 9.14137 17.519 10.4476 17.1387 11.6818C17.4835 12.4454 17.5875 13.296 17.4369 14.1203C17.2864 14.9445 16.8884 15.7034 16.2959 16.2959C15.7034 16.8883 14.9445 17.2863 14.1203 17.4369C13.296 17.5875 12.4455 17.4834 11.6818 17.1387C10.2479 17.581 8.72058 17.6239 7.26416 17.2627C5.80774 16.9015 4.47741 16.1499 3.41637 15.0889C2.35533 14.0278 1.60376 12.6975 1.24257 11.2411C0.881379 9.78465 0.924241 8.2573 1.36654 6.82344C1.02148 6.05972 0.917229 5.20902 1.06766 4.38458C1.21808 3.56014 1.61606 2.80107 2.2086 2.20843C2.80114 1.61579 3.56014 1.21769 4.38455 1.06712C5.20897 0.916557 6.05969 1.02067 6.82346 1.3656C7.6105 1.1239 8.42932 1.00154 9.25263 1.0026V1.0026Z" stroke="#B19D4F" stroke-width="2" stroke-linecap="round" stroke-linejoin="round"/>
<path d="M5.58594 11.5442C6.04427 13.3775 7.74744 13.8359 9.2526 13.8359C11.9155 13.8359 12.9193 12.7478 12.9193 11.5442C12.9193 10.1664 11.1529 9.25252 9.2526 9.25252C7.35235 9.25252 5.58594 8.33861 5.58594 6.96086C5.58594 5.75727 6.58969 4.66919 9.2526 4.66919C10.7578 4.66919 12.4609 5.12752 12.9193 6.96086" stroke="#B19D4F" stroke-width="2" stroke-linecap="round" stroke-linejoin="round"/>
</svg>
